<svg xmlns="http://www.w3.org/2000/svg" viewBox="-40 -42 80 84"><g stroke="#23233F" stroke-width="1.6" stroke-linejoin="round" stroke-linecap="round"><ellipse cx="2.0" cy="27.0" rx="34" ry="5" fill="#14143A" fill-opacity=".14" stroke="none"/><path d="M7.36 7.65 L-7.36 16.15 L-7.36 -0.85 L7.36 -9.35 Z" fill="#3459B4"/><path d="M-22.08 7.65 L-7.36 16.15 L-7.36 -0.85 L-22.08 -9.35 Z" fill="#5B86E6"/><path d="M-7.36 -17.85 L7.36 -9.35 L-7.36 -0.85 L-22.08 -9.35 Z" fill="#8FB0F5"/><path d="M24.14 17.34 L9.42 25.84 L9.42 8.84 L24.14 0.34 Z" fill="#B8931E"/><path d="M-5.30 17.34 L9.42 25.84 L9.42 8.84 L-5.30 0.34 Z" fill="#E9C33F"/><path d="M9.42 -8.16 L24.14 0.34 L9.42 8.84 L-5.30 0.34 Z" fill="#FBE38A"/><path d="M-6.18 -16.49 L21.79 -0.34 L15.02 -8.67 L-12.96 -24.82 Z" fill="#F49A80"/><path d="M-19.73 -8.67 L8.24 7.48 L15.02 -8.67 L-12.96 -24.82 Z" fill="#E8573B"/><path d="M21.79 -0.34 L8.24 7.48 L15.02 -8.67 Z" fill="#B53B24"/><path d="M-12.07 -20.23 L5.59 -10.03" stroke="#FFFFFF" stroke-opacity=".75" stroke-width="1.8"/><path d="M-17.67 4.25 L-11.78 7.65 L-11.78 1.36 L-17.67 -2.04 Z" fill="#F4F4F8"/><path d="M-0.88 13.94 L5.01 17.34 L5.01 11.05 L-0.88 7.65 Z" fill="#F4F4F8"/></g></svg>